<mxfile host="drawio-plugin" modified="2022-06-12T20:34:37.453Z" agent="5.0 (X11; Linux x86_64) AppleWebKit/537.36 (KHTML, like Gecko) Chrome/97.0.4692.45 Safari/537.36" version="15.5.4" etag="gEIQydk4EHsKjP3kHLFE" type="embed"><diagram id="_tguxziWQnmMdVFg1VMq" name="Main"><mxGraphModel dx="998" dy="524" grid="1" gridSize="10" guides="1" tooltips="1" connect="1" arrows="1" fold="1" page="1" pageScale="1" pageWidth="850" pageHeight="1100" math="0" shadow="0"><root><mxCell id="0"/><mxCell id="1" parent="0"/><mxCell id="22" style="edgeStyle=orthogonalEdgeStyle;curved=1;rounded=0;orthogonalLoop=1;jettySize=auto;html=1;entryX=0;entryY=0.5;entryDx=0;entryDy=0;" edge="1" parent="1" source="15" target="20"><mxGeometry relative="1" as="geometry"/></mxCell><mxCell id="15" value="ВКонтакте" style="shape=cube;whiteSpace=wrap;html=1;boundedLbl=1;backgroundOutline=1;darkOpacity=0.05;darkOpacity2=0.1;" vertex="1" parent="1"><mxGeometry x="40" y="160" width="120" height="80" as="geometry"/></mxCell><mxCell id="23" style="edgeStyle=orthogonalEdgeStyle;curved=1;rounded=0;orthogonalLoop=1;jettySize=auto;html=1;" edge="1" parent="1" source="16" target="20"><mxGeometry relative="1" as="geometry"/></mxCell><mxCell id="16" value="Telegram" style="shape=cube;whiteSpace=wrap;html=1;boundedLbl=1;backgroundOutline=1;darkOpacity=0.05;darkOpacity2=0.1;" vertex="1" parent="1"><mxGeometry x="40" y="280" width="120" height="80" as="geometry"/></mxCell><mxCell id="24" style="edgeStyle=orthogonalEdgeStyle;curved=1;rounded=0;orthogonalLoop=1;jettySize=auto;html=1;" edge="1" parent="1" source="18" target="20"><mxGeometry relative="1" as="geometry"/></mxCell><mxCell id="18" value="Discord" style="shape=cube;whiteSpace=wrap;html=1;boundedLbl=1;backgroundOutline=1;darkOpacity=0.05;darkOpacity2=0.1;" vertex="1" parent="1"><mxGeometry x="40" y="400" width="120" height="80" as="geometry"/></mxCell><mxCell id="25" style="edgeStyle=orthogonalEdgeStyle;curved=1;rounded=0;orthogonalLoop=1;jettySize=auto;html=1;" edge="1" parent="1" source="19" target="20"><mxGeometry relative="1" as="geometry"/></mxCell><mxCell id="19" value="Web" style="shape=cube;whiteSpace=wrap;html=1;boundedLbl=1;backgroundOutline=1;darkOpacity=0.05;darkOpacity2=0.1;" vertex="1" parent="1"><mxGeometry x="40" y="40" width="120" height="80" as="geometry"/></mxCell><mxCell id="34" style="edgeStyle=orthogonalEdgeStyle;curved=1;rounded=0;orthogonalLoop=1;jettySize=auto;html=1;entryX=0;entryY=0.5;entryDx=0;entryDy=0;" edge="1" parent="1" source="20" target="33"><mxGeometry relative="1" as="geometry"/></mxCell><mxCell id="36" style="edgeStyle=orthogonalEdgeStyle;curved=1;rounded=0;orthogonalLoop=1;jettySize=auto;html=1;entryX=0;entryY=0.5;entryDx=0;entryDy=0;" edge="1" parent="1" source="20" target="35"><mxGeometry relative="1" as="geometry"/></mxCell><mxCell id="20" value="Libs" style="rounded=1;whiteSpace=wrap;html=1;" vertex="1" parent="1"><mxGeometry x="280" y="230" width="120" height="60" as="geometry"/></mxCell><mxCell id="26" value="MongoDB" style="shape=cylinder3;whiteSpace=wrap;html=1;boundedLbl=1;backgroundOutline=1;size=15;" vertex="1" parent="1"><mxGeometry x="760" y="120" width="120" height="80" as="geometry"/></mxCell><mxCell id="27" value="Redis" style="shape=cylinder3;whiteSpace=wrap;html=1;boundedLbl=1;backgroundOutline=1;size=15;" vertex="1" parent="1"><mxGeometry x="760" y="220" width="120" height="80" as="geometry"/></mxCell><mxCell id="28" value="PostgreSQL" style="shape=cylinder3;whiteSpace=wrap;html=1;boundedLbl=1;backgroundOutline=1;size=15;" vertex="1" parent="1"><mxGeometry x="760" y="320" width="120" height="80" as="geometry"/></mxCell><mxCell id="33" value="Authorization" style="rounded=1;whiteSpace=wrap;html=1;" vertex="1" parent="1"><mxGeometry x="480" y="150" width="120" height="60" as="geometry"/></mxCell><mxCell id="35" value="Models" style="rounded=1;whiteSpace=wrap;html=1;" vertex="1" parent="1"><mxGeometry x="480" y="230" width="120" height="60" as="geometry"/></mxCell></root></mxGraphModel></diagram></mxfile>